<svg width="439" height="357" viewBox="0 0 439 357" fill="none" xmlns="http://www.w3.org/2000/svg">
<path d="M45.0343 75.5617C-9.82911 82.0824 -3.84664 160.281 7.82642 182.263C27.5247 228.204 45.0343 219.697 45.0343 284.889C45.0343 348.243 142.431 317.863 179.639 317.863C216.847 317.863 227.061 351.948 332.483 356.764C437.906 361.581 439 291.187 439 276.738C439 245.987 362.396 196.712 393.767 149.66C425.138 102.608 441.189 64.8174 422.585 40.365C403.981 15.9127 364.584 31.8438 280.319 8.50292C196.054 -14.838 181.828 15.5422 162.13 31.8438C142.431 48.1454 113.613 67.4109 45.0343 75.5617Z" fill="white" fill-opacity="0.3"/>
<path d="M339.356 306.429H300.523V307.088H339.356V306.429Z" fill="white"/>
<path d="M270.904 306.429H149.138V307.088H270.904V306.429Z" fill="white"/>
<path d="M148.809 321.568C156.988 321.568 163.619 314.79 163.619 306.429C163.619 298.069 156.988 291.291 148.809 291.291C140.63 291.291 134 298.069 134 306.429C134 314.79 140.63 321.568 148.809 321.568Z" fill="#F47920"/>
<path d="M217.261 321.568C225.44 321.568 232.071 314.79 232.071 306.429C232.071 298.069 225.44 291.291 217.261 291.291C209.083 291.291 202.452 298.069 202.452 306.429C202.452 314.79 209.083 321.568 217.261 321.568Z" fill="white"/>
<path d="M285.713 322.226C282.654 322.226 279.663 321.319 277.12 319.619C274.576 317.92 272.594 315.504 271.423 312.678C270.252 309.851 269.946 306.741 270.543 303.741C271.14 300.741 272.613 297.984 274.776 295.821C276.939 293.658 279.695 292.185 282.696 291.588C285.696 290.991 288.806 291.298 291.632 292.468C294.459 293.639 296.874 295.622 298.574 298.165C300.273 300.709 301.181 303.699 301.181 306.758C301.176 310.859 299.545 314.791 296.645 317.691C293.745 320.59 289.814 322.221 285.713 322.226ZM285.713 292.028C282.8 292.028 279.952 292.891 277.529 294.51C275.107 296.129 273.218 298.429 272.103 301.121C270.989 303.813 270.697 306.775 271.265 309.632C271.834 312.49 273.237 315.115 275.297 317.175C277.357 319.235 279.982 320.638 282.839 321.206C285.697 321.775 288.659 321.483 291.35 320.368C294.042 319.253 296.343 317.365 297.961 314.943C299.58 312.52 300.444 309.672 300.444 306.758C300.44 302.853 298.886 299.109 296.125 296.347C293.363 293.585 289.619 292.032 285.713 292.028Z" fill="white"/>
<path d="M354.165 322.226C351.106 322.226 348.116 321.319 345.572 319.619C343.028 317.92 341.046 315.504 339.875 312.678C338.704 309.851 338.398 306.741 338.995 303.741C339.592 300.741 341.065 297.984 343.228 295.821C345.391 293.658 348.147 292.185 351.148 291.588C354.148 290.991 357.258 291.298 360.084 292.468C362.911 293.639 365.326 295.622 367.026 298.165C368.726 300.709 369.633 303.699 369.633 306.758C369.628 310.859 367.997 314.791 365.097 317.691C362.198 320.59 358.266 322.221 354.165 322.226ZM354.165 292.028C351.252 292.028 348.404 292.891 345.981 294.51C343.559 296.129 341.671 298.429 340.556 301.121C339.441 303.813 339.149 306.775 339.717 309.632C340.286 312.49 341.689 315.115 343.749 317.175C345.809 319.235 348.434 320.638 351.291 321.206C354.149 321.775 357.111 321.483 359.803 320.368C362.494 319.253 364.795 317.365 366.414 314.943C368.032 312.52 368.896 309.672 368.896 306.758C368.892 302.853 367.338 299.109 364.577 296.347C361.815 293.585 358.071 292.032 354.165 292.028Z" fill="white"/>
<path d="M146.972 313.011L140.582 304.351L142.884 302.596L147.283 308.559L167.508 288L169.542 290.068L146.972 313.011Z" fill="white"/>
<path d="M237.88 124.412C237.88 124.412 268.236 125.878 270.065 136.501C271.894 147.125 234.588 137.6 234.588 137.6L237.88 124.412Z" fill="#A0616A"/>
<path d="M189.418 90.8446C189.418 90.8446 194.597 92.3159 198.667 101.143C202.736 109.971 210.875 118.063 210.875 118.063L243.802 124.316L238.253 140.867L206.806 136.821L187.198 125.787L189.418 90.8446Z" fill="#13263D"/>
<path opacity="0.1" d="M189.418 90.8446C189.418 90.8446 194.597 92.3159 198.667 101.143C202.736 109.971 210.875 118.063 210.875 118.063L243.802 124.316L238.253 140.867L206.806 136.821L187.198 125.787L189.418 90.8446Z" fill="#13263D"/>
<path d="M141.124 74.0137L144.461 95.0053L167.452 96.1102L164.856 65.1751L141.124 74.0137Z" fill="#FFA667"/>
<path d="M117.213 213.026L116.113 259.342H150.589L155.724 240.962L159.758 259.342H195.702C195.702 259.342 196.435 206.409 192.401 206.042C188.366 205.674 117.213 213.026 117.213 213.026Z" fill="#023E88"/>
<path d="M148.694 79.6554C159.781 79.6554 168.768 70.8149 168.768 59.9096C168.768 49.0043 159.781 40.1638 148.694 40.1638C137.606 40.1638 128.619 49.0043 128.619 59.9096C128.619 70.8149 137.606 79.6554 148.694 79.6554Z" fill="#FFA667"/>
<path d="M115.446 215.311L125.658 164.841L112.164 97.9125L143.243 86.218L158.483 84.3805L166.144 82.9464L171.612 84.3805C171.612 84.3805 193.495 89.8665 194.589 93.8895C195.683 97.9125 190.213 130.828 190.213 130.828L185.107 157.892L196.413 206.534C196.413 206.534 149.365 222.626 116.176 215.311H115.446Z" fill="#13263D"/>
<path opacity="0.1" d="M129.277 116.514V129.621L172.059 129.678L131.452 125.37L129.277 116.514Z" fill="black"/>
<path opacity="0.1" d="M125.328 153.777L179.299 146.133L125.328 161.271V153.777Z" fill="black"/>
<path opacity="0.1" d="M211.46 117.831L205.627 138.893L215.5 118.525L211.46 117.831Z" fill="black"/>
<path d="M164.922 39.837L168.569 38.3904C168.569 38.3904 160.943 30.0725 150.334 30.7959L153.318 27.541C153.318 27.541 146.024 24.6479 139.393 32.2424C135.907 36.2347 131.874 40.9275 129.36 46.2138H125.454L127.084 49.77L121.379 53.3262L127.235 52.6874C126.886 54.6348 126.832 56.6229 127.076 58.586C127.327 60.5497 128.339 62.3398 129.897 63.5787C129.897 63.5787 134.42 54.3029 134.42 52.8563V56.4728C134.42 56.4728 138.067 53.218 138.067 51.0481L140.056 53.5796L141.05 49.6015L153.318 53.5796L151.328 50.3248L158.954 51.4098L155.97 47.4316C155.97 47.4316 164.59 52.133 164.922 56.1112C165.253 60.0893 167.776 63.8588 167.776 63.8588C167.776 63.8588 174.536 45.2617 164.922 39.837Z" fill="#13263D"/>
<path d="M324.76 113.223H184.565V260H324.76V113.223Z" fill="white"/>
<path d="M303.039 145.475H199.045V159.955H303.039V145.475Z" fill="#0256BD"/>
<path d="M285.268 184.308H216.816V191.548H285.268V184.308Z" fill="#0256BD"/>
<path d="M285.268 196.814H216.816V204.054H285.268V196.814Z" fill="#0256BD"/>
<path d="M251.042 209.319H217.475V217.218H251.042V209.319Z" fill="#0256BD"/>
<path d="M305.014 246.836H289.217V254.076H305.014V246.836Z" fill="#0256BD"/>
<path d="M174.034 131.275C174.034 131.275 206.314 126.49 211.138 133.484C215.961 140.477 177.002 144.158 177.002 144.158L174.034 131.275Z" fill="#FFA667"/>
<path d="M115.791 97.4266H113.493C112.548 97.4239 111.637 97.7759 110.943 98.412C108.762 100.422 104.151 105.611 102.224 114.9C99.6575 127.277 95.2574 151.303 105.157 153.123C115.057 154.944 179.958 146.207 179.958 146.207L175.191 129.461L128.258 129.825C128.258 129.825 128.991 121.817 127.524 116.72C126.058 111.624 115.791 97.4266 115.791 97.4266Z" fill="#13263D"/>
<path d="M403.743 258.684H104.924V260H403.743V258.684Z" fill="white"/>
</svg>
